<mxfile host="Electron" agent="Mozilla/5.0 (Windows NT 10.0; Win64; x64) AppleWebKit/537.36 (KHTML, like Gecko) draw.io/28.0.6 Chrome/138.0.7204.100 Electron/37.2.3 Safari/537.36" version="28.0.6">
  <diagram id="Ht1M8jgEwFfnCIfOTk4-" name="Page-1">
    <mxGraphModel dx="1155" dy="1482" grid="0" gridSize="10" guides="1" tooltips="1" connect="1" arrows="1" fold="1" page="1" pageScale="1" pageWidth="1169" pageHeight="827" math="0" shadow="0">
      <root>
        <mxCell id="0" />
        <mxCell id="1" parent="0" />
        <mxCell id="UEzPUAAOIrF-is8g5C7q-74" value="AWS Cloud" style="points=[[0,0],[0.25,0],[0.5,0],[0.75,0],[1,0],[1,0.25],[1,0.5],[1,0.75],[1,1],[0.75,1],[0.5,1],[0.25,1],[0,1],[0,0.75],[0,0.5],[0,0.25]];outlineConnect=0;gradientColor=none;html=1;whiteSpace=wrap;fontSize=12;fontStyle=0;shape=mxgraph.aws4.group;grIcon=mxgraph.aws4.group_aws_cloud_alt;strokeColor=#232F3E;fillColor=none;verticalAlign=top;align=left;spacingLeft=30;fontColor=#232F3E;dashed=0;labelBackgroundColor=#ffffff;container=1;pointerEvents=0;collapsible=0;recursiveResize=0;" parent="1" vertex="1">
          <mxGeometry x="20" y="20" width="1100" height="780" as="geometry" />
        </mxCell>
        <mxCell id="deyQ4wJKNR2gjbfdCzCG-4" value="Private subnet" style="points=[[0,0],[0.25,0],[0.5,0],[0.75,0],[1,0],[1,0.25],[1,0.5],[1,0.75],[1,1],[0.75,1],[0.5,1],[0.25,1],[0,1],[0,0.75],[0,0.5],[0,0.25]];outlineConnect=0;gradientColor=none;html=1;whiteSpace=wrap;fontSize=12;fontStyle=0;container=1;pointerEvents=0;collapsible=0;recursiveResize=0;shape=mxgraph.aws4.group;grIcon=mxgraph.aws4.group_security_group;grStroke=0;strokeColor=#00A4A6;fillColor=#E6F6F7;verticalAlign=top;align=left;spacingLeft=30;fontColor=#147EBA;dashed=0;" vertex="1" parent="UEzPUAAOIrF-is8g5C7q-74">
          <mxGeometry x="598" y="148" width="422" height="512" as="geometry" />
        </mxCell>
        <mxCell id="deyQ4wJKNR2gjbfdCzCG-21" style="edgeStyle=orthogonalEdgeStyle;rounded=0;orthogonalLoop=1;jettySize=auto;html=1;" edge="1" parent="deyQ4wJKNR2gjbfdCzCG-4" source="deyQ4wJKNR2gjbfdCzCG-17" target="deyQ4wJKNR2gjbfdCzCG-16">
          <mxGeometry relative="1" as="geometry" />
        </mxCell>
        <mxCell id="deyQ4wJKNR2gjbfdCzCG-17" value="EC2&lt;div&gt;Backend&lt;/div&gt;" style="sketch=0;points=[[0,0,0],[0.25,0,0],[0.5,0,0],[0.75,0,0],[1,0,0],[0,1,0],[0.25,1,0],[0.5,1,0],[0.75,1,0],[1,1,0],[0,0.25,0],[0,0.5,0],[0,0.75,0],[1,0.25,0],[1,0.5,0],[1,0.75,0]];outlineConnect=0;fontColor=#232F3E;fillColor=#ED7100;strokeColor=#ffffff;dashed=0;verticalLabelPosition=bottom;verticalAlign=top;align=center;html=1;fontSize=12;fontStyle=0;aspect=fixed;shape=mxgraph.aws4.resourceIcon;resIcon=mxgraph.aws4.ec2;" vertex="1" parent="deyQ4wJKNR2gjbfdCzCG-4">
          <mxGeometry x="120" y="124" width="78" height="78" as="geometry" />
        </mxCell>
        <mxCell id="deyQ4wJKNR2gjbfdCzCG-16" value="ASG" style="fillColor=#008000;aspect=fixed;sketch=0;pointerEvents=1;shadow=0;dashed=0;html=1;strokeColor=none;labelPosition=center;verticalLabelPosition=bottom;outlineConnect=0;verticalAlign=top;align=center;shape=mxgraph.openstack.heat_autoscalinggroup;" vertex="1" parent="deyQ4wJKNR2gjbfdCzCG-4">
          <mxGeometry x="124" y="284" width="70" height="70" as="geometry" />
        </mxCell>
        <mxCell id="deyQ4wJKNR2gjbfdCzCG-9" value="RDS" style="outlineConnect=0;dashed=0;verticalLabelPosition=bottom;verticalAlign=top;align=center;html=1;shape=mxgraph.aws3.rds_db_instance;fillColor=#2E73B8;gradientColor=none;" vertex="1" parent="deyQ4wJKNR2gjbfdCzCG-4">
          <mxGeometry x="40" y="384" width="49.5" height="66" as="geometry" />
        </mxCell>
        <mxCell id="deyQ4wJKNR2gjbfdCzCG-22" style="edgeStyle=orthogonalEdgeStyle;rounded=0;orthogonalLoop=1;jettySize=auto;html=1;entryX=0.5;entryY=0.02;entryDx=0;entryDy=0;entryPerimeter=0;" edge="1" parent="deyQ4wJKNR2gjbfdCzCG-4" source="deyQ4wJKNR2gjbfdCzCG-17" target="deyQ4wJKNR2gjbfdCzCG-9">
          <mxGeometry relative="1" as="geometry" />
        </mxCell>
        <mxCell id="deyQ4wJKNR2gjbfdCzCG-27" style="edgeStyle=orthogonalEdgeStyle;rounded=0;orthogonalLoop=1;jettySize=auto;html=1;" edge="1" parent="deyQ4wJKNR2gjbfdCzCG-4" source="UEzPUAAOIrF-is8g5C7q-78" target="UEzPUAAOIrF-is8g5C7q-85">
          <mxGeometry relative="1" as="geometry" />
        </mxCell>
        <mxCell id="UEzPUAAOIrF-is8g5C7q-78" value="Bucket" style="outlineConnect=0;fontColor=#232F3E;gradientColor=none;fillColor=#277116;strokeColor=none;dashed=0;verticalLabelPosition=bottom;verticalAlign=top;align=center;html=1;fontSize=12;fontStyle=0;aspect=fixed;pointerEvents=1;shape=mxgraph.aws4.bucket_with_objects;labelBackgroundColor=#ffffff;" parent="deyQ4wJKNR2gjbfdCzCG-4" vertex="1">
          <mxGeometry x="302" y="392" width="75" height="78" as="geometry" />
        </mxCell>
        <mxCell id="deyQ4wJKNR2gjbfdCzCG-28" style="edgeStyle=orthogonalEdgeStyle;rounded=0;orthogonalLoop=1;jettySize=auto;html=1;" edge="1" parent="deyQ4wJKNR2gjbfdCzCG-4" source="UEzPUAAOIrF-is8g5C7q-85" target="deyQ4wJKNR2gjbfdCzCG-9">
          <mxGeometry relative="1" as="geometry" />
        </mxCell>
        <mxCell id="UEzPUAAOIrF-is8g5C7q-85" value="AWS Lambda" style="outlineConnect=0;fontColor=#232F3E;gradientColor=#F78E04;gradientDirection=north;fillColor=#D05C17;strokeColor=#ffffff;dashed=0;verticalLabelPosition=bottom;verticalAlign=top;align=center;html=1;fontSize=12;fontStyle=0;aspect=fixed;shape=mxgraph.aws4.resourceIcon;resIcon=mxgraph.aws4.lambda;labelBackgroundColor=#ffffff;spacingTop=6;" parent="deyQ4wJKNR2gjbfdCzCG-4" vertex="1">
          <mxGeometry x="172" y="392" width="78" height="78" as="geometry" />
        </mxCell>
        <mxCell id="deyQ4wJKNR2gjbfdCzCG-3" value="Public subnet" style="points=[[0,0],[0.25,0],[0.5,0],[0.75,0],[1,0],[1,0.25],[1,0.5],[1,0.75],[1,1],[0.75,1],[0.5,1],[0.25,1],[0,1],[0,0.75],[0,0.5],[0,0.25]];outlineConnect=0;gradientColor=none;html=1;whiteSpace=wrap;fontSize=12;fontStyle=0;container=1;pointerEvents=0;collapsible=0;recursiveResize=0;shape=mxgraph.aws4.group;grIcon=mxgraph.aws4.group_security_group;grStroke=0;strokeColor=#7AA116;fillColor=#F2F6E8;verticalAlign=top;align=left;spacingLeft=30;fontColor=#248814;dashed=0;" vertex="1" parent="UEzPUAAOIrF-is8g5C7q-74">
          <mxGeometry x="201" y="152" width="339" height="508" as="geometry" />
        </mxCell>
        <mxCell id="deyQ4wJKNR2gjbfdCzCG-8" value="ASG" style="fillColor=#008000;aspect=fixed;sketch=0;pointerEvents=1;shadow=0;dashed=0;html=1;strokeColor=none;labelPosition=center;verticalLabelPosition=bottom;outlineConnect=0;verticalAlign=top;align=center;shape=mxgraph.openstack.heat_autoscalinggroup;" vertex="1" parent="deyQ4wJKNR2gjbfdCzCG-3">
          <mxGeometry x="114" y="270" width="70" height="70" as="geometry" />
        </mxCell>
        <mxCell id="deyQ4wJKNR2gjbfdCzCG-19" style="edgeStyle=orthogonalEdgeStyle;rounded=0;orthogonalLoop=1;jettySize=auto;html=1;" edge="1" parent="deyQ4wJKNR2gjbfdCzCG-3" source="deyQ4wJKNR2gjbfdCzCG-14" target="deyQ4wJKNR2gjbfdCzCG-8">
          <mxGeometry relative="1" as="geometry" />
        </mxCell>
        <mxCell id="deyQ4wJKNR2gjbfdCzCG-14" value="Web Frontend" style="sketch=0;points=[[0,0,0],[0.25,0,0],[0.5,0,0],[0.75,0,0],[1,0,0],[0,1,0],[0.25,1,0],[0.5,1,0],[0.75,1,0],[1,1,0],[0,0.25,0],[0,0.5,0],[0,0.75,0],[1,0.25,0],[1,0.5,0],[1,0.75,0]];outlineConnect=0;fontColor=#232F3E;fillColor=#ED7100;strokeColor=#ffffff;dashed=0;verticalLabelPosition=bottom;verticalAlign=top;align=center;html=1;fontSize=12;fontStyle=0;aspect=fixed;shape=mxgraph.aws4.resourceIcon;resIcon=mxgraph.aws4.ec2;" vertex="1" parent="deyQ4wJKNR2gjbfdCzCG-3">
          <mxGeometry x="110" y="120" width="78" height="78" as="geometry" />
        </mxCell>
        <mxCell id="deyQ4wJKNR2gjbfdCzCG-6" value="Nat Gateway" style="sketch=0;outlineConnect=0;fontColor=#232F3E;gradientColor=none;fillColor=#8C4FFF;strokeColor=none;dashed=0;verticalLabelPosition=bottom;verticalAlign=top;align=center;html=1;fontSize=12;fontStyle=0;aspect=fixed;pointerEvents=1;shape=mxgraph.aws4.nat_gateway;" vertex="1" parent="deyQ4wJKNR2gjbfdCzCG-3">
          <mxGeometry x="-39" y="198" width="56" height="56" as="geometry" />
        </mxCell>
        <mxCell id="deyQ4wJKNR2gjbfdCzCG-32" style="edgeStyle=orthogonalEdgeStyle;rounded=0;orthogonalLoop=1;jettySize=auto;html=1;" edge="1" parent="deyQ4wJKNR2gjbfdCzCG-3" source="deyQ4wJKNR2gjbfdCzCG-30" target="deyQ4wJKNR2gjbfdCzCG-31">
          <mxGeometry relative="1" as="geometry" />
        </mxCell>
        <mxCell id="deyQ4wJKNR2gjbfdCzCG-30" value="EC2&lt;div&gt;Backend&lt;/div&gt;" style="sketch=0;points=[[0,0,0],[0.25,0,0],[0.5,0,0],[0.75,0,0],[1,0,0],[0,1,0],[0.25,1,0],[0.5,1,0],[0.75,1,0],[1,1,0],[0,0.25,0],[0,0.5,0],[0,0.75,0],[1,0.25,0],[1,0.5,0],[1,0.75,0]];outlineConnect=0;fontColor=#232F3E;fillColor=#ED7100;strokeColor=#ffffff;dashed=0;verticalLabelPosition=bottom;verticalAlign=top;align=center;html=1;fontSize=12;fontStyle=0;aspect=fixed;shape=mxgraph.aws4.resourceIcon;resIcon=mxgraph.aws4.ec2;" vertex="1" parent="deyQ4wJKNR2gjbfdCzCG-3">
          <mxGeometry x="229" y="120" width="78" height="78" as="geometry" />
        </mxCell>
        <mxCell id="deyQ4wJKNR2gjbfdCzCG-31" value="ASG" style="fillColor=#008000;aspect=fixed;sketch=0;pointerEvents=1;shadow=0;dashed=0;html=1;strokeColor=none;labelPosition=center;verticalLabelPosition=bottom;outlineConnect=0;verticalAlign=top;align=center;shape=mxgraph.openstack.heat_autoscalinggroup;" vertex="1" parent="deyQ4wJKNR2gjbfdCzCG-3">
          <mxGeometry x="233" y="270" width="70" height="70" as="geometry" />
        </mxCell>
        <mxCell id="deyQ4wJKNR2gjbfdCzCG-25" style="edgeStyle=orthogonalEdgeStyle;rounded=0;orthogonalLoop=1;jettySize=auto;html=1;" edge="1" parent="UEzPUAAOIrF-is8g5C7q-74" source="deyQ4wJKNR2gjbfdCzCG-6" target="deyQ4wJKNR2gjbfdCzCG-7">
          <mxGeometry relative="1" as="geometry" />
        </mxCell>
        <mxCell id="deyQ4wJKNR2gjbfdCzCG-7" value="Internet&lt;div&gt;Gateway&lt;/div&gt;" style="sketch=0;outlineConnect=0;fontColor=#232F3E;gradientColor=none;fillColor=#8C4FFF;strokeColor=none;dashed=0;verticalLabelPosition=bottom;verticalAlign=top;align=center;html=1;fontSize=12;fontStyle=0;aspect=fixed;pointerEvents=1;shape=mxgraph.aws4.internet_gateway;" vertex="1" parent="UEzPUAAOIrF-is8g5C7q-74">
          <mxGeometry x="160" y="200" width="60" height="60" as="geometry" />
        </mxCell>
        <mxCell id="deyQ4wJKNR2gjbfdCzCG-29" style="edgeStyle=orthogonalEdgeStyle;rounded=0;orthogonalLoop=1;jettySize=auto;html=1;" edge="1" parent="UEzPUAAOIrF-is8g5C7q-74" source="deyQ4wJKNR2gjbfdCzCG-5" target="deyQ4wJKNR2gjbfdCzCG-12">
          <mxGeometry relative="1" as="geometry" />
        </mxCell>
        <mxCell id="deyQ4wJKNR2gjbfdCzCG-33" style="edgeStyle=orthogonalEdgeStyle;rounded=0;orthogonalLoop=1;jettySize=auto;html=1;" edge="1" parent="UEzPUAAOIrF-is8g5C7q-74" source="deyQ4wJKNR2gjbfdCzCG-5" target="deyQ4wJKNR2gjbfdCzCG-30">
          <mxGeometry relative="1" as="geometry" />
        </mxCell>
        <mxCell id="deyQ4wJKNR2gjbfdCzCG-5" value="ALB&lt;div&gt;Frontend&lt;/div&gt;" style="sketch=0;outlineConnect=0;fontColor=#232F3E;gradientColor=none;fillColor=#8C4FFF;strokeColor=none;dashed=0;verticalLabelPosition=bottom;verticalAlign=top;align=center;html=1;fontSize=12;fontStyle=0;aspect=fixed;pointerEvents=1;shape=mxgraph.aws4.application_load_balancer;" vertex="1" parent="UEzPUAAOIrF-is8g5C7q-74">
          <mxGeometry x="311" y="90" width="78" height="78" as="geometry" />
        </mxCell>
        <mxCell id="deyQ4wJKNR2gjbfdCzCG-18" style="edgeStyle=orthogonalEdgeStyle;rounded=0;orthogonalLoop=1;jettySize=auto;html=1;" edge="1" parent="UEzPUAAOIrF-is8g5C7q-74" source="deyQ4wJKNR2gjbfdCzCG-5" target="deyQ4wJKNR2gjbfdCzCG-14">
          <mxGeometry relative="1" as="geometry" />
        </mxCell>
        <mxCell id="deyQ4wJKNR2gjbfdCzCG-12" value="ALB&lt;div&gt;Backend&lt;/div&gt;" style="sketch=0;outlineConnect=0;fontColor=#232F3E;gradientColor=none;fillColor=#8C4FFF;strokeColor=none;dashed=0;verticalLabelPosition=bottom;verticalAlign=top;align=center;html=1;fontSize=12;fontStyle=0;aspect=fixed;pointerEvents=1;shape=mxgraph.aws4.application_load_balancer;" vertex="1" parent="UEzPUAAOIrF-is8g5C7q-74">
          <mxGeometry x="718" y="90" width="78" height="78" as="geometry" />
        </mxCell>
        <mxCell id="deyQ4wJKNR2gjbfdCzCG-20" style="edgeStyle=orthogonalEdgeStyle;rounded=0;orthogonalLoop=1;jettySize=auto;html=1;" edge="1" parent="UEzPUAAOIrF-is8g5C7q-74" source="deyQ4wJKNR2gjbfdCzCG-12" target="deyQ4wJKNR2gjbfdCzCG-17">
          <mxGeometry relative="1" as="geometry" />
        </mxCell>
        <mxCell id="deyQ4wJKNR2gjbfdCzCG-34" style="edgeStyle=orthogonalEdgeStyle;rounded=0;orthogonalLoop=1;jettySize=auto;html=1;entryX=0;entryY=0.5;entryDx=0;entryDy=0;entryPerimeter=0;" edge="1" parent="UEzPUAAOIrF-is8g5C7q-74" source="deyQ4wJKNR2gjbfdCzCG-30" target="deyQ4wJKNR2gjbfdCzCG-17">
          <mxGeometry relative="1" as="geometry">
            <mxPoint x="694.6000366210938" y="311" as="targetPoint" />
          </mxGeometry>
        </mxCell>
        <mxCell id="deyQ4wJKNR2gjbfdCzCG-13" value="VPC" style="sketch=0;outlineConnect=0;gradientColor=none;html=1;whiteSpace=wrap;fontSize=12;fontStyle=0;shape=mxgraph.aws4.group;grIcon=mxgraph.aws4.group_vpc;strokeColor=default;fillColor=none;verticalAlign=top;align=left;spacingLeft=30;fontColor=#879196;dashed=0;" vertex="1" parent="UEzPUAAOIrF-is8g5C7q-74">
          <mxGeometry x="45" y="54" width="1010" height="680" as="geometry" />
        </mxCell>
      </root>
    </mxGraphModel>
  </diagram>
</mxfile>
